# xmcd
#
# Track frame offsets: 
#        150
#        19777
#        44147
#        63400
#        88245
#        106192
#        134282
#        151637
#        179807
#        197485
#        220050
#        247277
#        278200
#        299335
#
# Disc length: 4197 seconds
#
# Revision: 0
# Processed by: cddbd v1.5PL3 Copyright (c) Steve Scherf et al.
# Submitted via: ExactAudioCopy v0.95a4
#
DISCID=d610630e
DTITLE=Aron Burton - Past, Present and Future
DYEAR=1993
DGENRE=Blues
TTITLE0=Been Down
TTITLE1=Answering Machine Blues
TTITLE2=Live Like A Beggar
TTITLE3=Garbage Man
TTITLE4=Trouble
TTITLE5=Wayward Blues Boy
TTITLE6=Southbound Train
TTITLE7=Rainy Night In Georgia
TTITLE8=The Highway Is Like A Woman
TTITLE9=Funky Emma 
TTITLE10=Any Day But Today
TTITLE11=Past, Present, and Future
TTITLE12=Two WAy Street
TTITLE13=Spirit
EXTD=
EXTT0=
EXTT1=
EXTT2=
EXTT3=
EXTT4=
EXTT5=
EXTT6=
EXTT7=
EXTT8=
EXTT9=
EXTT10=
EXTT11=
EXTT12=
EXTT13=
PLAYORDER=
